<svg xmlns="http://www.w3.org/2000/svg" xmlns:xlink="http://www.w3.org/1999/xlink" xmlns:inkscape="http://www.inkscape.org/namespaces/inkscape" version="1.1" width="160" height="160" viewBox="0 0 160 160">
<defs>
<clipPath id="clip_0">
<path transform="matrix(1,0,0,-1,0,160)" d="M0 160H160V0H0Z"/>
</clipPath>
</defs>
<g inkscape:groupmode="layer" inkscape:label="Layer 1">
<g clip-path="url(#clip_0)">
<path transform="matrix(1,0,0,-1,94.1239,60.987398)" d="M0 0C0 0-4.258 7.355-12.968 8.194-27.761 9.619-37.33-8.361-27.707-19.82-23.478-24.856-16.169-27.063-9.861-25.21-3.552-23.358 1.403-17.549 2.237-11.027 2.551-8.577 2.482-5.733 4.363-4.132 5.95-2.781 8.649-3.055 9.931-4.699 10.835-5.856 11.008-7.415 11.02-8.883 11.176-28.352-12.343-40.664-28.213-29.232-33.308-25.561-37.078-19.921-38.771-13.9-39.482-11.375-39.83-8.744-39.741-6.121-39.654-3.597-38.335-1.097-38.262 1.29-38.262 1.29-37.487 26.454-37.487 26.454-37.487 26.454-37.745 29.777-33.81 30.164-33.81 30.164-30.712 30.358-29.874 26.906L-29.809 12.517-23.163 32.874C-23.163 32.874-21.615 36.455-18.195 35.035-18.195 35.035-15.227 34.1-15.743 31.1L-19.292 16.485-8.743 34.519C-8.743 34.519-6.904 37.649-3.645 35.906-3.645 35.906-.839 34.584-1.71 31.454L-8.969 16.421C-8.969 16.421 2.516 13.517 6.775 5.452 6.775 5.452 8.356 2.323 5.646 .194 5.646 .194 3.258-2.032 0 0" fill="#2b332c"/>
<path transform="matrix(1,0,0,-1,75.4944,59.452104)" d="M0 0 1.696-2.756-1.537-19.715 2.756-23.849 7.208-20.033 3.975-2.756 5.618 0C5.618 0 2.279 1.113 0 0" fill="#66bc46"/>
<path transform="matrix(1,0,0,-1,44.8723,115.510608)" d="M0 0C0 0 2.872-.83 2.809 1.149V13.596H6.255V1.851C6.255 1.851 5.745-4.34 0-2.489Z" fill="#2b332c"/>
<path transform="matrix(1,0,0,-1,54.3192,112.3192)" d="M0 0C.501-.893 1.923-1.596 2.82-1.923 5.225-2.801 8.492-2.131 9.938 .099 11.404 2.361 11.458 5.107 10.532 7.596 10.532 7.596 9.574 10.34 5.298 10.723 5.298 10.723-.702 10.787-.83 5.809-.83 5.809-1.468 2.617 0 0" fill="#2b332c"/>
<path transform="matrix(1,0,0,-1,57.0626,110.3255)" d="M0 0C.264-.47 1.013-.841 1.486-1.013 2.753-1.476 4.474-1.123 5.236 .052 6.008 1.244 6.037 2.691 5.549 4.002 5.549 4.002 5.044 5.448 2.791 5.65 2.791 5.65-.37 5.683-.437 3.06-.437 3.06-.773 1.379 0 0" fill="#ffffff"/>
<path transform="matrix(1,0,0,-1,67.7872,101.9149)" d="M0 0V-12.383H5.234C5.234-12.383 7.468-12.638 8.809-10.979 8.809-10.979 11.298-7.149 7.213-5.872 7.301-5.9 7.59-5.694 7.66-5.654 8.009-5.456 8.333-5.208 8.603-4.911 9.635-3.774 9.536-1.662 8.239-.753 7.585-.295 6.672 0 5.872 0Z" fill="#2b332c"/>
<path transform="matrix(1,0,0,-1,71.0426,104.3404)" d="M0 0V-2.394H1.5C1.5-2.394 2.872-2.074 2.553-.989 2.553-.989 2.442-.191 1.301 0Z" fill="#ffffff"/>
<path transform="matrix(1,0,0,-1,71.0426,109.1416)" d="M0 0V-2.643H1.656C1.656-2.643 3.172-2.291 2.819-1.092 2.819-1.092 2.696-.211 1.436 0Z" fill="#ffffff"/>
<path transform="matrix(1,0,0,-1,105.766,101.9149)" d="M0 0V-12.383H5.234C5.234-12.383 7.468-12.638 8.809-10.979 8.809-10.979 11.298-7.149 7.213-5.872 7.29-5.897 7.548-5.717 7.61-5.682 7.918-5.513 8.208-5.305 8.46-5.059 9.111-4.425 9.391-3.472 9.289-2.579 9.238-2.132 9.089-1.694 8.841-1.317 8.521-.83 8.091-.655 7.576-.421 7.052-.183 6.453 0 5.872 0Z" fill="#2b332c"/>
<path transform="matrix(1,0,0,-1,109.0213,104.3404)" d="M0 0V-2.394H1.5C1.5-2.394 2.872-2.074 2.553-.989 2.553-.989 2.442-.191 1.301 0Z" fill="#ffffff"/>
<path transform="matrix(1,0,0,-1,109.0213,109.1416)" d="M0 0V-2.643H1.656C1.656-2.643 3.172-2.291 2.819-1.092 2.819-1.092 2.696-.211 1.436 0Z" fill="#ffffff"/>
<path transform="matrix(1,0,0,-1,79.5319,101.9149)" d="M0 0H3.415V-4.66H7.213V0H10.66V-12.543H7.34V-7.227H3.319V-12.397H0Z" fill="#2b332c"/>
<path transform="matrix(1,0,0,-1,96.2234,101.9149)" d="M0 0V-7.915C0-7.915 .287-10.053 1.819-9.862 1.819-9.862 3.926-9.957 3.926-8.17V0H7.277V-8.553C7.277-8.553 6.862-12.734 2.426-12.543 2.426-12.543-3-13.117-3.383-8.234V0Z" fill="#2b332c"/>
</g>
<text xml:space="preserve" transform="matrix(1 0 -0 1 0 160)" font-size="5.5" font-family="ErasITC"><tspan y="-34.9189" x="55.5596 58.7056 60.171354 63.691354 67.12885 68.50385 71.72685 75.125858 78.563358 80.69736 82.07236 86.659358 91.44436 94.964359 96.339359 97.813358 101.21236">Find Your Own job</tspan></text>
</g>
</svg>
