<svg xmlns="http://www.w3.org/2000/svg" xmlns:xlink="http://www.w3.org/1999/xlink" width="500" zoomAndPan="magnify" viewBox="0 0 375 374.999991" height="500" preserveAspectRatio="xMidYMid meet" version="1.0"><defs><g/><clipPath id="0dc3f9be04"><path d="M 175 175 L 183 175 L 183 183 L 175 183 Z M 175 175 " clip-rule="nonzero"/></clipPath><clipPath id="44ad131398"><path d="M 174.519531 176.300781 L 179.476562 171.71875 L 186.09375 178.878906 L 181.136719 183.460938 Z M 174.519531 176.300781 " clip-rule="nonzero"/></clipPath><clipPath id="06299a469d"><path d="M 174.519531 176.300781 L 179.476562 171.71875 L 186.09375 178.878906 L 181.136719 183.460938 Z M 174.519531 176.300781 " clip-rule="nonzero"/></clipPath><clipPath id="bd3ed2f4e7"><path d="M 172 177 L 180 177 L 180 185 L 172 185 Z M 172 177 " clip-rule="nonzero"/></clipPath><clipPath id="c84ef56758"><path d="M 170.96875 178.886719 L 175.925781 174.304688 L 182.542969 181.464844 L 177.585938 186.046875 Z M 170.96875 178.886719 " clip-rule="nonzero"/></clipPath><clipPath id="fe03eafb67"><path d="M 170.96875 178.886719 L 175.925781 174.304688 L 182.542969 181.464844 L 177.585938 186.046875 Z M 170.96875 178.886719 " clip-rule="nonzero"/></clipPath></defs><g clip-path="url(#0dc3f9be04)"><g clip-path="url(#44ad131398)"><g clip-path="url(#06299a469d)"><path fill="#41a748" d="M 182.667969 175.503906 L 176.839844 175.242188 C 175.714844 175.195312 175.527344 177.386719 176.859375 177.421875 L 180.484375 177.519531 L 180.207031 181.167969 C 180.121094 182.277344 182.289062 182.394531 182.351562 181.265625 Z M 182.667969 175.503906 " fill-opacity="1" fill-rule="nonzero"/></g></g></g><g clip-path="url(#bd3ed2f4e7)"><g clip-path="url(#c84ef56758)"><g clip-path="url(#fe03eafb67)"><path fill="#41a748" d="M 179.117188 178.089844 L 173.292969 177.832031 C 172.167969 177.78125 171.976562 179.972656 173.308594 180.007812 L 176.933594 180.109375 L 176.65625 183.753906 C 176.574219 184.867188 178.738281 184.984375 178.800781 183.855469 Z M 179.117188 178.089844 " fill-opacity="1" fill-rule="nonzero"/></g></g></g><g fill="#000000" fill-opacity="1"><g transform="translate(112.826296, 192.591851)"><g><path d="M 6.28125 -11.390625 C 7.445312 -11.390625 8.46875 -11.144531 9.34375 -10.65625 C 10.226562 -10.164062 10.910156 -9.476562 11.390625 -8.59375 C 11.878906 -7.71875 12.125 -6.695312 12.125 -5.53125 C 12.101562 -4.382812 11.847656 -3.378906 11.359375 -2.515625 C 10.867188 -1.660156 10.1875 -0.988281 9.3125 -0.5 C 8.445312 -0.0195312 7.4375 0.21875 6.28125 0.21875 C 5.132812 0.21875 4.125 -0.0195312 3.25 -0.5 C 2.375 -0.988281 1.691406 -1.660156 1.203125 -2.515625 C 0.710938 -3.378906 0.457031 -4.382812 0.4375 -5.53125 C 0.4375 -6.695312 0.679688 -7.71875 1.171875 -8.59375 C 1.660156 -9.476562 2.34375 -10.164062 3.21875 -10.65625 C 4.101562 -11.144531 5.125 -11.390625 6.28125 -11.390625 Z M 6.28125 -1.96875 C 7.269531 -1.96875 8.0625 -2.296875 8.65625 -2.953125 C 9.25 -3.617188 9.546875 -4.476562 9.546875 -5.53125 C 9.546875 -6.613281 9.25 -7.492188 8.65625 -8.171875 C 8.0625 -8.859375 7.269531 -9.203125 6.28125 -9.203125 C 5.300781 -9.203125 4.507812 -8.859375 3.90625 -8.171875 C 3.300781 -7.492188 3 -6.613281 3 -5.53125 C 3 -4.476562 3.300781 -3.617188 3.90625 -2.953125 C 4.507812 -2.296875 5.300781 -1.96875 6.28125 -1.96875 Z M 6.28125 -1.96875 "/></g></g></g><g fill="#000000" fill-opacity="1"><g transform="translate(125.013075, 192.591851)"><g/></g></g><g fill="#000000" fill-opacity="1"><g transform="translate(130.170609, 192.591851)"><g/></g></g><g fill="#000000" fill-opacity="1"><g transform="translate(135.32924, 192.591851)"><g><path d="M 11.5625 -13.984375 C 11.875 -13.984375 12.164062 -13.882812 12.4375 -13.6875 C 12.71875 -13.5 12.859375 -13.21875 12.859375 -12.84375 L 12.859375 -1.1875 C 12.859375 -0.789062 12.71875 -0.492188 12.4375 -0.296875 C 12.164062 -0.0976562 11.875 0 11.5625 0 C 11.25 0 10.960938 -0.0976562 10.703125 -0.296875 C 10.441406 -0.492188 10.3125 -0.789062 10.3125 -1.1875 L 10.3125 -5.703125 L 3.75 -5.703125 L 3.75 -1.1875 C 3.75 -0.78125 3.617188 -0.476562 3.359375 -0.28125 C 3.097656 -0.09375 2.820312 0 2.53125 0 C 2.207031 0 1.910156 -0.0976562 1.640625 -0.296875 C 1.367188 -0.503906 1.234375 -0.800781 1.234375 -1.1875 L 1.234375 -12.84375 C 1.234375 -13.21875 1.351562 -13.5 1.59375 -13.6875 C 1.84375 -13.882812 2.128906 -13.984375 2.453125 -13.984375 C 2.773438 -13.984375 3.070312 -13.882812 3.34375 -13.6875 C 3.613281 -13.5 3.75 -13.21875 3.75 -12.84375 L 3.75 -7.84375 L 10.3125 -7.84375 L 10.3125 -12.84375 C 10.3125 -13.21875 10.441406 -13.5 10.703125 -13.6875 C 10.960938 -13.882812 11.25 -13.984375 11.5625 -13.984375 Z M 11.5625 -13.984375 "/></g></g></g><g fill="#000000" fill-opacity="1"><g transform="translate(149.485154, 192.591851)"><g><path d="M 10.78125 -11.171875 C 11.15625 -11.171875 11.457031 -11.050781 11.6875 -10.8125 C 11.925781 -10.582031 12.046875 -10.289062 12.046875 -9.9375 L 12.046875 -1.125 C 12.046875 -0.757812 11.910156 -0.476562 11.640625 -0.28125 C 11.367188 -0.09375 11.085938 0 10.796875 0 C 10.472656 0 10.179688 -0.0976562 9.921875 -0.296875 C 9.671875 -0.492188 9.546875 -0.773438 9.546875 -1.140625 L 9.546875 -1.234375 C 8.953125 -0.640625 8.332031 -0.25 7.6875 -0.0625 C 7.039062 0.125 6.441406 0.21875 5.890625 0.21875 C 4.359375 0.21875 3.164062 -0.257812 2.3125 -1.21875 C 1.46875 -2.175781 1.046875 -3.472656 1.046875 -5.109375 L 1.046875 -9.9375 C 1.046875 -10.28125 1.15625 -10.570312 1.375 -10.8125 C 1.601562 -11.050781 1.914062 -11.171875 2.3125 -11.171875 C 2.6875 -11.171875 2.988281 -11.050781 3.21875 -10.8125 C 3.445312 -10.570312 3.5625 -10.28125 3.5625 -9.9375 L 3.5625 -5.078125 C 3.5625 -4.117188 3.773438 -3.359375 4.203125 -2.796875 C 4.640625 -2.242188 5.320312 -1.96875 6.25 -1.96875 C 6.53125 -1.96875 6.859375 -2.046875 7.234375 -2.203125 C 7.609375 -2.359375 7.96875 -2.585938 8.3125 -2.890625 C 8.664062 -3.203125 8.957031 -3.59375 9.1875 -4.0625 C 9.425781 -4.539062 9.546875 -5.101562 9.546875 -5.75 L 9.546875 -9.9375 C 9.546875 -10.289062 9.648438 -10.582031 9.859375 -10.8125 C 10.066406 -11.050781 10.375 -11.171875 10.78125 -11.171875 Z M 10.78125 -11.171875 "/></g></g></g><g fill="#000000" fill-opacity="1"><g transform="translate(162.741234, 192.591851)"><g><path d="M 6.765625 -11.390625 C 7.890625 -11.390625 8.84375 -11.148438 9.625 -10.671875 C 10.40625 -10.203125 11.003906 -9.535156 11.421875 -8.671875 C 11.835938 -7.816406 12.046875 -6.828125 12.046875 -5.703125 C 12.046875 -4.597656 11.851562 -3.59375 11.46875 -2.6875 C 11.082031 -1.789062 10.523438 -1.082031 9.796875 -0.5625 C 9.078125 -0.0390625 8.210938 0.21875 7.203125 0.21875 C 6.523438 0.21875 5.875 0.101562 5.25 -0.125 C 4.632812 -0.351562 4.070312 -0.691406 3.5625 -1.140625 C 3.5625 -0.378906 3.164062 0 2.375 0 C 1.976562 0 1.664062 -0.0976562 1.4375 -0.296875 C 1.207031 -0.492188 1.09375 -0.769531 1.09375 -1.125 L 1.09375 -13.109375 C 1.09375 -13.484375 1.21875 -13.757812 1.46875 -13.9375 C 1.726562 -14.113281 2.019531 -14.203125 2.34375 -14.203125 C 2.65625 -14.203125 2.941406 -14.113281 3.203125 -13.9375 C 3.460938 -13.757812 3.59375 -13.484375 3.59375 -13.109375 L 3.578125 -10.046875 C 4.054688 -10.503906 4.570312 -10.84375 5.125 -11.0625 C 5.6875 -11.28125 6.234375 -11.390625 6.765625 -11.390625 Z M 6.671875 -2.015625 C 7.535156 -2.015625 8.226562 -2.351562 8.75 -3.03125 C 9.28125 -3.707031 9.546875 -4.59375 9.546875 -5.6875 C 9.546875 -6.726562 9.265625 -7.566406 8.703125 -8.203125 C 8.140625 -8.835938 7.394531 -9.15625 6.46875 -9.15625 C 5.882812 -9.15625 5.316406 -8.992188 4.765625 -8.671875 C 4.222656 -8.347656 3.828125 -7.882812 3.578125 -7.28125 L 3.5625 -4 C 3.757812 -3.332031 4.148438 -2.832031 4.734375 -2.5 C 5.328125 -2.175781 5.972656 -2.015625 6.671875 -2.015625 Z M 6.671875 -2.015625 "/></g></g></g><g fill="#000000" fill-opacity="1"><g transform="translate(123.609767, 192.591851)"><g><path d="M 6.765625 -11.390625 C 7.890625 -11.390625 8.84375 -11.148438 9.625 -10.671875 C 10.40625 -10.203125 11.003906 -9.535156 11.421875 -8.671875 C 11.835938 -7.816406 12.046875 -6.828125 12.046875 -5.703125 C 12.046875 -4.597656 11.851562 -3.59375 11.46875 -2.6875 C 11.082031 -1.789062 10.523438 -1.082031 9.796875 -0.5625 C 9.078125 -0.0390625 8.210938 0.21875 7.203125 0.21875 C 6.523438 0.21875 5.875 0.101562 5.25 -0.125 C 4.632812 -0.351562 4.070312 -0.691406 3.5625 -1.140625 C 3.5625 -0.378906 3.164062 0 2.375 0 C 1.976562 0 1.664062 -0.0976562 1.4375 -0.296875 C 1.207031 -0.492188 1.09375 -0.769531 1.09375 -1.125 L 1.09375 -13.109375 C 1.09375 -13.484375 1.21875 -13.757812 1.46875 -13.9375 C 1.726562 -14.113281 2.019531 -14.203125 2.34375 -14.203125 C 2.65625 -14.203125 2.941406 -14.113281 3.203125 -13.9375 C 3.460938 -13.757812 3.59375 -13.484375 3.59375 -13.109375 L 3.578125 -10.046875 C 4.054688 -10.503906 4.570312 -10.84375 5.125 -11.0625 C 5.6875 -11.28125 6.234375 -11.390625 6.765625 -11.390625 Z M 6.671875 -2.015625 C 7.535156 -2.015625 8.226562 -2.351562 8.75 -3.03125 C 9.28125 -3.707031 9.546875 -4.59375 9.546875 -5.6875 C 9.546875 -6.726562 9.265625 -7.566406 8.703125 -8.203125 C 8.140625 -8.835938 7.394531 -9.15625 6.46875 -9.15625 C 5.882812 -9.15625 5.316406 -8.992188 4.765625 -8.671875 C 4.222656 -8.347656 3.828125 -7.882812 3.578125 -7.28125 L 3.5625 -4 C 3.757812 -3.332031 4.148438 -2.832031 4.734375 -2.5 C 5.328125 -2.175781 5.972656 -2.015625 6.671875 -2.015625 Z M 6.671875 -2.015625 "/></g></g></g><g fill="#000000" fill-opacity="1"><g transform="translate(97.518871, 196.147878)"><g><path d="M 12.25 -17.4375 L 7.140625 -17.4375 C 6.515625 -17.4375 6.035156 -17.601562 5.703125 -17.9375 C 5.367188 -18.28125 5.203125 -18.65625 5.203125 -19.0625 C 5.203125 -19.476562 5.367188 -19.851562 5.703125 -20.1875 C 6.035156 -20.519531 6.515625 -20.6875 7.140625 -20.6875 L 14 -20.6875 C 14.5 -20.6875 14.925781 -20.535156 15.28125 -20.234375 C 15.632812 -19.929688 15.835938 -19.566406 15.890625 -19.140625 L 15.890625 -7.40625 C 15.910156 -5.863281 15.554688 -4.507812 14.828125 -3.34375 C 14.097656 -2.175781 13.082031 -1.269531 11.78125 -0.625 C 10.488281 0.0078125 8.976562 0.328125 7.25 0.328125 C 5.789062 0.328125 4.445312 0.0195312 3.21875 -0.59375 C 2 -1.21875 1.023438 -2.050781 0.296875 -3.09375 C -0.421875 -4.144531 -0.78125 -5.332031 -0.78125 -6.65625 C -0.78125 -7.175781 -0.578125 -7.609375 -0.171875 -7.953125 C 0.222656 -8.304688 0.648438 -8.484375 1.109375 -8.484375 C 1.609375 -8.484375 2.039062 -8.347656 2.40625 -8.078125 C 2.769531 -7.804688 2.972656 -7.363281 3.015625 -6.75 C 3.085938 -5.601562 3.507812 -4.675781 4.28125 -3.96875 C 5.0625 -3.269531 6.050781 -2.921875 7.25 -2.921875 C 8.738281 -2.921875 9.941406 -3.332031 10.859375 -4.15625 C 11.785156 -4.976562 12.25 -6.0625 12.25 -7.40625 Z M 12.25 -17.4375 "/></g></g></g><g fill="#41a748" fill-opacity="1"><g transform="translate(151.883679, 199.385488)"><g><path d="M 7.046875 -5.5 L 5.53125 0 L 5.140625 0 L 3.640625 -4.953125 L 2.109375 0 L 1.734375 0 L 0.25 -5.5 L 0.625 -5.5 L 1.9375 -0.5 L 3.453125 -5.5 L 3.84375 -5.5 L 5.34375 -0.46875 L 6.671875 -5.5 Z M 7.046875 -5.5 "/></g></g></g><g fill="#41a748" fill-opacity="1"><g transform="translate(158.86385, 199.385488)"><g><path d="M 2.515625 0.0625 C 2.117188 0.0625 1.757812 -0.0234375 1.4375 -0.203125 C 1.125 -0.378906 0.875 -0.632812 0.6875 -0.96875 C 0.507812 -1.300781 0.421875 -1.691406 0.421875 -2.140625 C 0.421875 -2.578125 0.507812 -2.957031 0.6875 -3.28125 C 0.875 -3.613281 1.128906 -3.867188 1.453125 -4.046875 C 1.773438 -4.222656 2.132812 -4.3125 2.53125 -4.3125 C 2.925781 -4.3125 3.285156 -4.222656 3.609375 -4.046875 C 3.929688 -3.867188 4.179688 -3.613281 4.359375 -3.28125 C 4.535156 -2.957031 4.625 -2.578125 4.625 -2.140625 C 4.625 -1.691406 4.53125 -1.300781 4.34375 -0.96875 C 4.164062 -0.632812 3.914062 -0.378906 3.59375 -0.203125 C 3.269531 -0.0234375 2.910156 0.0625 2.515625 0.0625 Z M 2.515625 -0.25 C 2.828125 -0.25 3.113281 -0.316406 3.375 -0.453125 C 3.644531 -0.597656 3.863281 -0.8125 4.03125 -1.09375 C 4.195312 -1.375 4.28125 -1.722656 4.28125 -2.140625 C 4.28125 -2.546875 4.195312 -2.890625 4.03125 -3.171875 C 3.863281 -3.453125 3.644531 -3.660156 3.375 -3.796875 C 3.113281 -3.941406 2.832031 -4.015625 2.53125 -4.015625 C 2.21875 -4.015625 1.925781 -3.941406 1.65625 -3.796875 C 1.394531 -3.660156 1.179688 -3.453125 1.015625 -3.171875 C 0.859375 -2.890625 0.78125 -2.546875 0.78125 -2.140625 C 0.78125 -1.722656 0.859375 -1.375 1.015625 -1.09375 C 1.179688 -0.8125 1.394531 -0.597656 1.65625 -0.453125 C 1.925781 -0.316406 2.210938 -0.25 2.515625 -0.25 Z M 2.515625 -0.25 "/></g></g></g><g fill="#41a748" fill-opacity="1"><g transform="translate(163.619067, 199.385488)"><g><path d="M 1 -3.375 C 1.101562 -3.6875 1.285156 -3.925781 1.546875 -4.09375 C 1.816406 -4.257812 2.160156 -4.34375 2.578125 -4.34375 L 2.578125 -3.984375 L 2.453125 -3.984375 C 2.035156 -3.984375 1.6875 -3.863281 1.40625 -3.625 C 1.132812 -3.382812 1 -2.992188 1 -2.453125 L 1 0 L 0.640625 0 L 0.640625 -4.265625 L 1 -4.265625 Z M 1 -3.375 "/></g></g></g><g fill="#41a748" fill-opacity="1"><g transform="translate(166.063157, 199.385488)"><g><path d="M 1 -5.796875 L 1 0 L 0.640625 0 L 0.640625 -5.796875 Z M 1 -5.796875 "/></g></g></g><g fill="#41a748" fill-opacity="1"><g transform="translate(167.410435, 199.385488)"><g><path d="M 0.421875 -2.140625 C 0.421875 -2.578125 0.507812 -2.957031 0.6875 -3.28125 C 0.863281 -3.613281 1.101562 -3.867188 1.40625 -4.046875 C 1.71875 -4.222656 2.078125 -4.3125 2.484375 -4.3125 C 2.910156 -4.3125 3.285156 -4.203125 3.609375 -3.984375 C 3.929688 -3.765625 4.15625 -3.484375 4.28125 -3.140625 L 4.28125 -5.796875 L 4.640625 -5.796875 L 4.640625 0 L 4.28125 0 L 4.28125 -1.125 C 4.15625 -0.78125 3.9375 -0.492188 3.625 -0.265625 C 3.3125 -0.046875 2.929688 0.0625 2.484375 0.0625 C 2.078125 0.0625 1.71875 -0.0234375 1.40625 -0.203125 C 1.101562 -0.390625 0.863281 -0.644531 0.6875 -0.96875 C 0.507812 -1.300781 0.421875 -1.691406 0.421875 -2.140625 Z M 4.28125 -2.140625 C 4.28125 -2.503906 4.203125 -2.828125 4.046875 -3.109375 C 3.890625 -3.398438 3.675781 -3.625 3.40625 -3.78125 C 3.144531 -3.9375 2.851562 -4.015625 2.53125 -4.015625 C 2.1875 -4.015625 1.878906 -3.9375 1.609375 -3.78125 C 1.347656 -3.632812 1.144531 -3.421875 1 -3.140625 C 0.851562 -2.859375 0.78125 -2.523438 0.78125 -2.140625 C 0.78125 -1.742188 0.851562 -1.40625 1 -1.125 C 1.144531 -0.84375 1.347656 -0.625 1.609375 -0.46875 C 1.878906 -0.320312 2.1875 -0.25 2.53125 -0.25 C 2.851562 -0.25 3.148438 -0.328125 3.421875 -0.484375 C 3.691406 -0.640625 3.898438 -0.859375 4.046875 -1.140625 C 4.203125 -1.421875 4.28125 -1.753906 4.28125 -2.140625 Z M 4.28125 -2.140625 "/></g></g></g></svg>